<?xml version="1.0" encoding="UTF-8"?>
<svg xmlns="http://www.w3.org/2000/svg" xmlns:xlink="http://www.w3.org/1999/xlink" width="31px" height="31px" viewBox="0 0 31 31" version="1.1">
<g id="surface1">
<path style=" stroke:none;fill-rule:nonzero;fill:rgb(0%,0%,0%);fill-opacity:1;" d="M 27.011719 20.523438 C 27 19.253906 27.394531 16.617188 26.613281 15.222656 C 26.621094 14.609375 26.535156 13.925781 26.335938 13.167969 C 26.28125 12.96875 26.144531 12.886719 25.996094 12.886719 C 25.433594 11.246094 23.652344 9.640625 22.066406 9.03125 C 18.25 7.554688 14.113281 7.816406 10.320312 9.167969 C 8.113281 6.503906 6.152344 3.632812 3.703125 1.179688 C 3.304688 0.78125 2.589844 1.304688 2.910156 1.792969 C 4.699219 4.515625 6.675781 7.238281 8.84375 9.753906 C 6.78125 10.664062 4.851562 11.882812 3.175781 13.3125 C 3.023438 13.441406 3.125 13.652344 3.277344 13.710938 C 2.632812 14.425781 2.421875 15.074219 2.515625 15.65625 C 1.953125 17.566406 2.007812 19.539062 2.210938 21.511719 C 2.367188 23.0625 2.5 25.023438 3.1875 26.46875 C 3.179688 26.539062 3.183594 26.617188 3.21875 26.695312 C 4.277344 29.117188 7.261719 30.117188 10.207031 30.5625 C 10.261719 30.578125 10.316406 30.585938 10.375 30.585938 C 12.066406 30.828125 13.734375 30.898438 15 30.953125 C 17.589844 31.0625 25.582031 31.269531 26.496094 27.652344 C 26.613281 27.601562 26.714844 27.519531 26.769531 27.417969 C 27.683594 25.710938 27.023438 22.328125 27.011719 20.523438 Z M 25.765625 18.652344 C 25.441406 18.660156 25.109375 18.699219 24.78125 18.746094 C 25.160156 18.476562 25.496094 18.171875 25.769531 17.8125 C 25.769531 18.089844 25.769531 18.371094 25.765625 18.652344 Z M 9.589844 10.613281 C 10.316406 11.425781 11.070312 12.210938 11.839844 12.960938 C 11.839844 12.972656 11.839844 12.980469 11.84375 12.988281 C 11.996094 13.789062 12.636719 14.636719 13.375 14.980469 C 14.5 15.5 15.335938 14.695312 15.742188 13.691406 C 16.015625 13.011719 15.917969 12.226562 15.257812 11.824219 C 14.914062 11.617188 14.507812 11.605469 14.113281 11.679688 C 13.871094 11.574219 13.625 11.484375 13.363281 11.4375 C 13.007812 11.375 12.703125 11.421875 12.453125 11.542969 C 11.992188 11.070312 11.542969 10.585938 11.109375 10.089844 C 12.953125 9.519531 14.863281 9.164062 16.886719 9.136719 C 19.519531 9.097656 22.207031 9.972656 24.140625 11.765625 C 26.890625 14.316406 22.472656 16.082031 20.382812 16.320312 C 17.121094 16.6875 5.203125 17.859375 4.4375 13.359375 C 4.425781 13.285156 4.386719 13.226562 4.34375 13.175781 C 6.046875 12.171875 7.789062 11.296875 9.589844 10.613281 Z M 3.6875 14.734375 C 5.464844 19.402344 21.039062 17.84375 24.140625 16.476562 C 24.789062 16.1875 25.261719 15.84375 25.589844 15.46875 C 25.257812 17.457031 23.851562 18.492188 22.03125 19.003906 C 21.742188 19.039062 21.457031 19.089844 21.1875 19.175781 C 21.160156 19.183594 21.140625 19.199219 21.121094 19.210938 C 18.761719 19.636719 15.9375 19.386719 13.800781 19.203125 C 11.074219 18.972656 3.261719 18.464844 3.6875 14.734375 Z M 16.339844 24.226562 C 16.167969 24.226562 15.871094 24.242188 15.726562 24.390625 C 15.578125 23.925781 15.441406 23.453125 15.3125 22.984375 C 15.828125 22.523438 17.257812 22.90625 17.792969 22.992188 C 18.226562 23.058594 18.722656 23.1875 19.207031 23.230469 C 19.085938 23.582031 18.96875 23.933594 18.855469 24.285156 C 18.125 24.199219 17.136719 24.222656 16.339844 24.226562 Z M 18.617188 24.996094 C 18.484375 25.402344 18.351562 25.804688 18.214844 26.203125 C 17.585938 26.113281 16.945312 26.191406 16.304688 26.109375 C 16.152344 25.679688 16.007812 25.253906 15.863281 24.824219 C 15.949219 24.863281 16.042969 24.898438 16.109375 24.925781 C 16.210938 24.964844 16.285156 24.859375 16.277344 24.769531 C 16.601562 24.800781 16.925781 24.828125 17.25 24.863281 C 17.5625 24.898438 18.15625 25.046875 18.617188 24.996094 Z M 16.886719 22.191406 C 16.351562 22.148438 15.628906 22.101562 15.164062 22.4375 C 15.074219 22.082031 14.992188 21.722656 14.917969 21.363281 C 16.558594 21.296875 18.144531 21.691406 19.769531 21.742188 C 19.675781 21.972656 19.582031 22.199219 19.496094 22.429688 C 18.65625 22.257812 17.691406 22.25 16.886719 22.191406 Z M 16.898438 20.65625 C 16.222656 20.625 15.484375 20.589844 14.800781 20.726562 C 14.773438 20.5625 14.738281 20.398438 14.714844 20.234375 C 14.710938 20.226562 14.707031 20.226562 14.707031 20.222656 C 16.476562 20.359375 18.546875 20.414062 20.464844 20.179688 C 20.335938 20.429688 20.226562 20.683594 20.109375 20.9375 C 19.070312 20.726562 17.941406 20.707031 16.898438 20.65625 Z M 3.128906 16.796875 C 5.125 18.875 11.195312 19.875 12.9375 20.058594 C 13.214844 20.089844 13.507812 20.117188 13.816406 20.148438 C 13.765625 20.25 13.722656 20.351562 13.675781 20.453125 C 12.867188 20.230469 11.984375 20.160156 11.164062 20.066406 C 10.386719 19.976562 9.585938 19.886719 8.84375 20.101562 C 8.796875 19.917969 8.761719 19.730469 8.714844 19.542969 C 8.628906 19.183594 8.167969 19.085938 7.914062 19.332031 C 7.90625 19.339844 7.902344 19.347656 7.894531 19.355469 C 7.878906 19.3125 7.863281 19.269531 7.832031 19.238281 C 7.507812 18.902344 6.90625 18.851562 6.46875 18.742188 C 5.84375 18.585938 5.210938 18.460938 4.574219 18.371094 C 4.21875 18.320312 3.453125 18.195312 3.152344 18.53125 C 3.125 17.953125 3.109375 17.375 3.128906 16.796875 Z M 12.394531 21.859375 C 11.867188 21.859375 11.34375 21.847656 10.816406 21.84375 C 10.332031 21.839844 9.757812 21.796875 9.25 21.902344 C 9.144531 21.421875 9.03125 20.945312 8.921875 20.464844 C 9.609375 20.445312 10.441406 20.644531 11.074219 20.738281 C 11.839844 20.851562 12.585938 21.042969 13.339844 21.203125 C 13.238281 21.433594 13.128906 21.660156 13.03125 21.890625 C 12.835938 21.839844 12.628906 21.863281 12.394531 21.859375 Z M 12.726562 22.621094 C 12.601562 22.921875 12.472656 23.21875 12.351562 23.519531 C 12.351562 23.429688 12.308594 23.34375 12.226562 23.28125 C 11.960938 23.089844 11.449219 23.140625 11.09375 23.117188 C 10.574219 23.078125 10.054688 23.035156 9.53125 23.046875 C 9.523438 23.046875 9.519531 23.054688 9.507812 23.054688 C 9.460938 22.828125 9.402344 22.601562 9.355469 22.371094 C 9.90625 22.332031 10.539062 22.445312 11.042969 22.476562 C 11.46875 22.503906 12.171875 22.671875 12.726562 22.621094 Z M 3.179688 18.90625 C 3.203125 18.894531 3.226562 18.875 3.238281 18.84375 C 3.289062 18.675781 4.960938 19.078125 5.226562 19.140625 C 5.898438 19.304688 6.800781 19.789062 7.519531 19.765625 C 7.417969 19.882812 7.304688 19.992188 7.203125 20.113281 C 7.183594 20.089844 7.167969 20.058594 7.128906 20.039062 C 6.746094 19.847656 6.179688 19.867188 5.753906 19.789062 C 5.214844 19.691406 4.675781 19.589844 4.128906 19.554688 C 3.785156 19.53125 3.453125 19.582031 3.238281 19.738281 C 3.210938 19.460938 3.199219 19.183594 3.179688 18.90625 Z M 3.285156 20.253906 C 3.648438 19.730469 5.976562 20.589844 6.820312 20.632812 C 6.703125 20.792969 6.578125 20.953125 6.46875 21.121094 C 6.449219 21.109375 6.4375 21.089844 6.414062 21.082031 C 5.6875 20.910156 4.746094 21.015625 4.003906 21.089844 C 3.8125 21.109375 3.582031 21.15625 3.414062 21.265625 C 3.367188 20.929688 3.324219 20.59375 3.285156 20.253906 Z M 3.515625 21.988281 C 3.5 21.882812 3.488281 21.773438 3.46875 21.667969 C 3.480469 21.65625 3.496094 21.648438 3.5 21.632812 C 3.550781 21.417969 5.390625 21.640625 6.132812 21.671875 C 5.902344 22.070312 5.683594 22.476562 5.488281 22.898438 C 5.5 22.789062 5.453125 22.671875 5.328125 22.644531 C 5.039062 22.582031 4.761719 22.628906 4.46875 22.636719 C 4.195312 22.644531 3.921875 22.648438 3.648438 22.65625 C 3.601562 22.429688 3.550781 22.207031 3.515625 21.988281 Z M 4.28125 26.070312 C 4.238281 25.09375 3.960938 24.074219 3.734375 23.085938 C 3.925781 23.089844 4.117188 23.09375 4.308594 23.097656 C 4.648438 23.105469 4.996094 23.167969 5.328125 23.09375 C 5.371094 23.085938 5.398438 23.058594 5.425781 23.03125 C 4.972656 24.019531 4.601562 25.050781 4.28125 26.070312 Z M 4.496094 27.023438 C 5.472656 24.796875 6.382812 22.5 7.984375 20.660156 C 8.644531 23.492188 9.171875 26.351562 9.726562 29.203125 C 7.683594 28.867188 5.6875 28.226562 4.496094 27.023438 Z M 9.613281 23.554688 C 10.109375 23.582031 10.601562 23.652344 11.09375 23.714844 C 11.441406 23.761719 11.914062 23.941406 12.226562 23.738281 C 12.253906 23.71875 12.273438 23.695312 12.289062 23.667969 C 12.117188 24.101562 11.933594 24.535156 11.765625 24.96875 C 11.734375 24.957031 11.707031 24.9375 11.667969 24.9375 C 11.363281 24.953125 11.082031 25.066406 10.78125 25.097656 C 10.488281 25.125 10.199219 25.085938 9.914062 25.019531 C 9.820312 24.53125 9.714844 24.042969 9.613281 23.554688 Z M 10.019531 25.535156 C 10.5 25.667969 11.066406 25.734375 11.53125 25.582031 C 11.191406 26.476562 10.855469 27.378906 10.535156 28.285156 C 10.371094 27.367188 10.195312 26.453125 10.019531 25.535156 Z M 15 29.613281 C 13.96875 29.59375 12.585938 29.554688 11.132812 29.398438 C 12.027344 26.757812 13.039062 24.164062 14.144531 21.605469 C 14.3125 24.335938 15.585938 27.15625 16.570312 29.640625 C 16.007812 29.632812 15.476562 29.621094 15 29.613281 Z M 16.515625 26.6875 C 17.003906 26.796875 17.527344 26.839844 18.003906 26.804688 C 17.777344 27.429688 17.539062 28.050781 17.265625 28.65625 C 17.011719 28 16.757812 27.34375 16.515625 26.6875 Z M 17.902344 29.636719 C 19.234375 26.921875 19.808594 23.910156 21.078125 21.171875 C 21.261719 21.507812 21.441406 21.847656 21.621094 22.1875 C 21.328125 22.242188 21.394531 22.738281 21.691406 22.707031 C 21.757812 22.699219 21.820312 22.703125 21.882812 22.699219 C 22.804688 24.507812 23.585938 26.410156 23.757812 28.414062 C 23.757812 28.4375 23.769531 28.457031 23.773438 28.476562 C 22.136719 29.367188 19.925781 29.597656 17.902344 29.636719 Z M 25.726562 26.207031 C 25.714844 26.636719 25.570312 26.847656 25.710938 26.800781 C 25.710938 26.808594 25.710938 26.8125 25.707031 26.816406 C 25.605469 26.863281 25.511719 26.929688 25.433594 27.042969 C 25.222656 27.34375 24.972656 27.605469 24.699219 27.839844 C 24.640625 27.140625 24.488281 26.445312 24.28125 25.757812 C 24.703125 25.871094 25.246094 25.96875 25.730469 25.941406 C 25.730469 26.03125 25.730469 26.117188 25.726562 26.207031 Z M 25.742188 25.21875 C 25.671875 25.234375 25.601562 25.25 25.527344 25.261719 C 25.050781 25.324219 24.574219 25.261719 24.101562 25.195312 C 24.097656 25.191406 24.09375 25.199219 24.089844 25.195312 C 23.917969 24.71875 23.722656 24.246094 23.515625 23.777344 C 23.851562 23.777344 24.183594 23.789062 24.519531 23.796875 C 24.910156 23.808594 25.335938 23.863281 25.742188 23.84375 C 25.742188 24.234375 25.746094 24.621094 25.746094 25.011719 C 25.746094 25.082031 25.742188 25.148438 25.742188 25.21875 Z M 25.742188 23.171875 C 25.050781 23.117188 24.261719 23.269531 23.628906 23.339844 C 23.527344 23.347656 23.425781 23.359375 23.324219 23.375 C 23.207031 23.128906 23.078125 22.890625 22.957031 22.648438 C 23.324219 22.644531 23.695312 22.652344 24.066406 22.660156 C 24.585938 22.671875 25.261719 22.757812 25.746094 22.523438 C 25.746094 22.738281 25.742188 22.957031 25.742188 23.171875 Z M 25.75 21.957031 C 25.152344 21.828125 24.410156 22.003906 23.796875 22.019531 C 23.417969 22.027344 23.039062 22.039062 22.660156 22.066406 C 22.40625 21.574219 22.148438 21.09375 21.894531 20.621094 C 22.011719 20.613281 22.132812 20.605469 22.25 20.601562 C 22.828125 20.589844 23.40625 20.601562 23.980469 20.601562 C 24.394531 20.601562 25.203125 20.734375 25.757812 20.59375 C 25.75 21.046875 25.753906 21.503906 25.75 21.957031 Z M 24.617188 19.804688 C 23.875 19.839844 23.132812 19.855469 22.386719 19.910156 C 22.242188 19.921875 22.042969 19.925781 21.84375 19.945312 C 22.238281 19.855469 22.621094 19.753906 22.984375 19.628906 C 23.234375 19.621094 23.480469 19.609375 23.726562 19.601562 C 24.34375 19.578125 25.089844 19.640625 25.761719 19.546875 C 25.761719 19.621094 25.761719 19.695312 25.761719 19.773438 C 25.484375 19.804688 24.914062 19.792969 24.617188 19.804688 Z M 24.617188 19.804688 "/>
<path style=" stroke:none;fill-rule:nonzero;fill:rgb(0%,0%,0%);fill-opacity:1;" d="M 28.855469 8.785156 C 28.84375 8.757812 28.828125 8.730469 28.816406 8.707031 C 28.75 8.566406 28.628906 8.484375 28.492188 8.445312 C 28.390625 8.253906 27.695312 7.574219 27.519531 7.390625 C 26.953125 6.804688 26.355469 6.285156 25.738281 5.757812 C 24.136719 4.390625 22.386719 3.179688 20.589844 2.078125 C 20.617188 1.894531 20.628906 1.710938 20.632812 1.539062 C 20.636719 1.273438 20.484375 1.082031 20.273438 0.976562 C 20.1875 0.738281 20.050781 0.519531 19.835938 0.34375 C 19.273438 -0.105469 18.578125 -0.0703125 17.945312 0.203125 C 17.34375 0.460938 16.890625 1.042969 16.816406 1.691406 C 16.738281 2.351562 17.359375 3.660156 18.175781 3.433594 C 18.207031 3.425781 18.222656 3.398438 18.25 3.382812 C 18.691406 3.644531 19.210938 3.734375 19.707031 3.519531 C 19.933594 3.417969 20.101562 3.257812 20.234375 3.066406 C 22.085938 4.53125 23.992188 5.929688 25.714844 7.546875 C 26.253906 8.054688 27.523438 10.082031 28.484375 9.703125 C 28.875 9.546875 29.039062 9.179688 28.855469 8.785156 Z M 28.855469 8.785156 "/>
</g>
</svg>
